<mxfile host="app.diagrams.net" modified="2024-05-06T11:36:05.381Z" agent="Mozilla/5.0 (Windows NT 10.0; Win64; x64) AppleWebKit/537.36 (KHTML, like Gecko) Chrome/124.0.0.0 Safari/537.36" version="24.3.1" etag="nTnbN7mZl8NkI0LvgAz7" type="github">
  <diagram name="Page-1" id="sDBBbWr5pC3tDZIH92D7">
    <mxGraphModel>
      <root>
        <mxCell id="0" />
        <mxCell id="1" parent="0" />
      </root>
    </mxGraphModel>
  </diagram>
</mxfile>
